<svg xmlns="http://www.w3.org/2000/svg" viewBox="0 0 1024 1024">
  <defs>
    <linearGradient id="bg" x1="160" y1="96" x2="864" y2="928" gradientUnits="userSpaceOnUse">
      <stop offset="0" stop-color="#202329"/>
      <stop offset="1" stop-color="#101113"/>
    </linearGradient>
    <linearGradient id="lens" x1="282" y1="240" x2="742" y2="782" gradientUnits="userSpaceOnUse">
      <stop offset="0" stop-color="#4fb7a3"/>
      <stop offset="1" stop-color="#e7b75f"/>
    </linearGradient>
    <filter id="shadow" x="-20%" y="-20%" width="140%" height="140%">
      <feDropShadow dx="0" dy="28" stdDeviation="36" flood-color="#000000" flood-opacity="0.35"/>
    </filter>
  </defs>
  <rect x="88" y="88" width="848" height="848" rx="210" fill="url(#bg)"/>
  <rect x="134" y="134" width="756" height="756" rx="176" fill="none" stroke="#f4f0e8" stroke-opacity="0.08" stroke-width="16"/>
  <g filter="url(#shadow)">
    <path d="M308 352c0-42 34-76 76-76h72l36-54c11-17 30-27 50-27h96c20 0 39 10 50 27l36 54h28c42 0 76 34 76 76v322c0 42-34 76-76 76H384c-42 0-76-34-76-76V352Z" fill="#f4f0e8" fill-opacity="0.94"/>
    <circle cx="568" cy="520" r="164" fill="#101113"/>
    <circle cx="568" cy="520" r="120" fill="url(#lens)"/>
    <circle cx="568" cy="520" r="68" fill="#101113" fill-opacity="0.78"/>
    <circle cx="705" cy="355" r="28" fill="#101113" fill-opacity="0.72"/>
  </g>
  <path d="M291 665c52 48 125 78 220 78 132 0 234-63 306-161" fill="none" stroke="#4fb7a3" stroke-width="24" stroke-linecap="round" opacity="0.9"/>
  <text x="246" y="360" font-family="PingFang SC, Heiti SC, Microsoft YaHei, sans-serif" font-size="156" font-weight="800" fill="#e7b75f">白</text>
</svg>
